<svg xmlns="http://www.w3.org/2000/svg" id="b_x5F_surprise" viewBox="0 0 100 100">
  <style>
    .st0{fill:#FFD48F;} .st1{fill:#FFFFFF;}
  </style>
  <path d="M53.1 13c-20.4 0-37 16.6-37 37 0 4.7.9 9.3 2.5 13.4l-8.8 19 20-3.7c6.4 5.1 14.4 8.2 23.3 8.2 20.4 0 37-16.6 37-37S73.6 13 53.1 13z" class="st0"/>
  <path d="M47.8 28.6h10.5c1 0 1.7.8 1.7 1.8l-.6 20.2c0 .9-.8 1.7-1.7 1.7h-9.3c-.9 0-1.7-.7-1.7-1.7l-.6-20.2c0-1 .8-1.8 1.7-1.8zm5.4 29.1c3.9 0 7 3.1 7 7 0 3.8-3.1 6.8-7 6.8-3.8 0-6.8-3-6.8-6.8 0-3.9 3-7 6.8-7z" class="st1"/>
</svg>
