<svg width="377" height="431" viewBox="0 0 377 431" fill="none" xmlns="http://www.w3.org/2000/svg">
<path d="M376 29.07L375.32 38.2C375.22 39.44 372.85 68.96 355.37 103.46C340.37 133.05 311.18 171.59 256.07 193.25C251.77 194.95 247.307 196.537 242.68 198.01L237.52 181.81C250.474 177.733 262.953 172.275 274.74 165.53C302.83 149.31 324.67 126.16 339.9 96.37C347.98 80.5092 353.739 63.5693 357 46.07H294.3V29.07H376Z" fill="#6C63FF"/>
<path opacity="0.1" d="M249.32 193.26C304.42 171.6 333.62 133.07 348.61 103.48C366.09 68.98 368.47 39.48 368.56 38.22L369.24 29.09H376.24L375.56 38.22C375.47 39.46 373.09 68.98 355.61 103.48C340.61 133.07 311.42 171.6 256.32 193.26C252.02 194.96 247.553 196.55 242.92 198.03L242.24 195.9C244.653 195.04 247.013 194.16 249.32 193.26Z" fill="white"/>
<path d="M139 181.81L133.84 198.01C129.207 196.53 124.74 194.94 120.44 193.24C65.34 171.58 36.14 133.05 21.15 103.46C3.66999 68.96 1.29001 39.46 1.20001 38.2L0.519989 29.07H82.18V46.07H19.47C22.748 63.5715 28.5237 80.5113 36.62 96.37C51.85 126.16 73.68 149.31 101.77 165.52C113.558 172.272 126.041 177.734 139 181.81V181.81Z" fill="#6C63FF"/>
<path opacity="0.1" d="M127.18 193.26C72.08 171.6 42.88 133.07 27.89 103.48C10.41 68.98 8.03 39.48 7.94 38.22L7.26001 29.09H0.26001L0.940002 38.22C1.03 39.46 3.41002 68.98 20.89 103.48C35.89 133.07 65.08 171.6 120.18 193.26C124.48 194.96 128.947 196.55 133.58 198.03L134.26 195.9C131.853 195.04 129.493 194.16 127.18 193.26Z" fill="white"/>
<path d="M282.59 338.41V430.08H93.92V338.41L99.92 330.41C161.06 308.71 173.45 252.12 175.92 229.73C176.288 226.636 176.498 223.525 176.55 220.41H199.88C199.932 223.525 200.142 226.636 200.51 229.73C203.02 252.12 215.41 308.73 276.51 330.41L282.59 338.41Z" fill="#6C63FF"/>
<path opacity="0.1" d="M282.59 338.41H93.92V349.91H282.59V338.41Z" fill="black"/>
<path opacity="0.1" d="M109.92 330.41C171.06 308.71 183.45 252.12 185.92 229.73C186.288 226.636 186.498 223.525 186.55 220.41H176.55C176.498 223.525 176.288 226.636 175.92 229.73C173.41 252.12 161.02 308.73 99.92 330.41L93.92 338.41V430.08H103.92V338.41L109.92 330.41Z" fill="white"/>
<path opacity="0.1" d="M65.26 29.07H82.18V46.07H66.76C66.1533 40.47 65.6533 34.8033 65.26 29.07Z" fill="black"/>
<path opacity="0.1" d="M139 181.81L133.84 198.01C129.207 196.53 124.74 194.94 120.44 193.24C113.367 184.602 107.116 175.322 101.77 165.52C113.558 172.272 126.041 177.734 139 181.81Z" fill="black"/>
<path opacity="0.1" d="M237.51 181.81C250.464 177.733 262.943 172.275 274.73 165.53C269.381 175.333 263.131 184.616 256.06 193.26C251.76 194.96 247.297 196.547 242.67 198.02L237.51 181.81Z" fill="black"/>
<path opacity="0.1" d="M311.24 29.07C310.847 34.8033 310.347 40.47 309.74 46.07H294.33V29.07H311.24Z" fill="black"/>
<path opacity="0.1" d="M200.55 229.73C192.429 231.303 184.081 231.303 175.96 229.73C176.328 226.636 176.538 223.525 176.59 220.41H199.92C199.972 223.525 200.182 226.636 200.55 229.73V229.73Z" fill="black"/>
<path d="M67.26 0.909973C67.69 126.97 121.69 228.91 188.26 228.91C254.83 228.91 308.82 126.97 309.26 0.909973H67.26Z" fill="#6C63FF"/>
<path opacity="0.1" d="M88.76 0.909973H67.26C67.69 126.97 121.69 228.91 188.26 228.91C191.862 228.903 195.458 228.599 199.01 228C137.47 217.72 89.17 120.11 88.76 0.909973Z" fill="white"/>
<path d="M252.42 373.5H124.09V406.5H252.42V373.5Z" fill="#3F3D56"/>
<path opacity="0.1" d="M130.09 378H252.42V373.5H124.09V406.5H130.09V378Z" fill="white"/>
</svg>
